<svg width="202" height="4" viewBox="0 0 202 4" fill="none" xmlns="http://www.w3.org/2000/svg">
<path d="M201 1C192.315 1 187.731 1.54545 183.63 2C179.528 2.45455 175.668 3 167.707 3C159.745 3 155.885 2.54546 151.784 2C147.441 1.45454 143.099 1 134.172 1C125.487 1 120.903 1.54545 116.802 2C112.701 2.45455 108.841 3 100.879 3C92.918 3 89.0579 2.54546 84.9566 2C80.614 1.45454 76.2714 1 67.5862 1C58.9011 1 54.3172 1.54545 50.2159 2C46.1146 2.45455 42.2545 3 34.2931 3C26.3317 3 22.4717 2.54546 18.3703 2C14.0277 1.45454 9.68516 1 1 1" stroke="black" stroke-width="0.4" stroke-linecap="round"/>
</svg>
